<svg width="1200" height="600" viewBox="0 0 1200 600" xmlns="http://www.w3.org/2000/svg">
  <!-- Background -->
  <defs>
    <radialGradient id="twitterBg" cx="50%" cy="50%" r="70%">
      <stop offset="0%" style="stop-color:#8338EC;stop-opacity:0.4" />
      <stop offset="100%" style="stop-color:#0F0F23;stop-opacity:1" />
    </radialGradient>
    <linearGradient id="titleGrad" x1="0%" y1="0%" x2="100%" y2="0%">
      <stop offset="0%" style="stop-color:#FF006E;stop-opacity:1" />
      <stop offset="100%" style="stop-color:#00F5FF;stop-opacity:1" />
    </linearGradient>
  </defs>
  
  <rect width="1200" height="600" fill="url(#twitterBg)"/>
  
  <!-- Decorative elements -->
  <g opacity="0.1" fill="#00F5FF">
    <circle cx="100" cy="100" r="50"/>
    <circle cx="1100" cy="500" r="80"/>
    <circle cx="200" cy="450" r="30"/>
    <circle cx="1000" cy="150" r="40"/>
  </g>
  
  <!-- Main content -->
  <g transform="translate(600, 300)">
    <!-- Camera icon -->
    <g transform="translate(-75, -50)">
      <rect x="0" y="20" width="150" height="80" rx="10" fill="#00F5FF" opacity="0.9"/>
      <circle cx="75" cy="60" r="30" fill="#ffffff"/>
      <circle cx="75" cy="60" r="20" fill="#8338EC"/>
      <rect x="120" y="30" width="18" height="10" rx="2" fill="#ffffff"/>
    </g>
    
    <!-- Text -->
    <text x="0" y="120" text-anchor="middle" font-family="Arial, sans-serif" font-size="52" font-weight="bold" fill="url(#titleGrad)">JudgeMyJPEG</text>
    <text x="0" y="160" text-anchor="middle" font-family="Arial, sans-serif" font-size="24" fill="#ffffff" opacity="0.9">Analyse IA • Critique Photo Expert</text>
  </g>
  
  <!-- Corner accents -->
  <g fill="#FF006E" opacity="0.6">
    <polygon points="0,0 50,0 0,50"/>
    <polygon points="1200,0 1200,50 1150,0"/>
    <polygon points="0,600 0,550 50,600"/>
    <polygon points="1200,600 1150,600 1200,550"/>
  </g>
</svg>